<?xml version="1.0" encoding="UTF-8" standalone="no"?>
<!-- Created with Inkscape (http://www.inkscape.org/) -->

<svg
   xmlns:dc="http://purl.org/dc/elements/1.1/"
   xmlns:cc="http://creativecommons.org/ns#"
   xmlns:rdf="http://www.w3.org/1999/02/22-rdf-syntax-ns#"
   xmlns:svg="http://www.w3.org/2000/svg"
   xmlns="http://www.w3.org/2000/svg"
   xmlns:sodipodi="http://sodipodi.sourceforge.net/DTD/sodipodi-0.dtd"
   xmlns:inkscape="http://www.inkscape.org/namespaces/inkscape"
   id="svg2"
   version="1.1"
   inkscape:version="0.48.0 r9654"
   width="400"
   height="51"
   sodipodi:docname="yang.svg">
  <metadata
     id="metadata8">
    <rdf:RDF>
      <cc:Work
         rdf:about="">
        <dc:format>image/svg+xml</dc:format>
        <dc:type
           rdf:resource="http://purl.org/dc/dcmitype/StillImage" />
        <dc:title></dc:title>
      </cc:Work>
    </rdf:RDF>
  </metadata>
  <defs
     id="defs6" />
  <sodipodi:namedview
     pagecolor="#ffffff"
     bordercolor="#666666"
     borderopacity="1"
     objecttolerance="10"
     gridtolerance="10"
     guidetolerance="10"
     inkscape:pageopacity="0"
     inkscape:pageshadow="2"
     inkscape:window-width="1229"
     inkscape:window-height="742"
     id="namedview4"
     showgrid="false"
     inkscape:zoom="2.52"
     inkscape:cx="200"
     inkscape:cy="31.452381"
     inkscape:window-x="0"
     inkscape:window-y="0"
     inkscape:window-maximized="0"
     inkscape:current-layer="svg2" />
  <g
     id="g3032"
     transform="translate(-1.984127,-1.9841275)">
    <path
       style="fill:#b3c891"
       d="M 5.3993523,47.896166 C 4.9047086,47.128275 4.3511412,38.242705 4.1692026,28.150456 3.8437822,10.099173 3.876291,9.7600514 6.1692026,7.2870851 L 8.5,4.773258 78,5.3828845 c 38.225,0.3352946 74.225,1.0491706 80,1.5863911 11.84209,1.1016131 44.58362,1.2216679 81,0.2970061 13.475,-0.3421487 54.58102,-0.793526 91.34671,-1.0030605 63.57109,-0.3623036 66.91391,-0.2923336 68.21819,1.4279034 1.71866,2.266755 1.9848,28.4335474 0.33727,33.1596524 L 397.80435,44 368.65217,44.0041 C 352.61848,44.0063 326.675,44.437803 311,44.96296 254.40005,46.85922 232.44026,47.263685 168.5,47.58759 132.75,47.76869 81.629709,48.226343 54.899352,48.604597 13.856367,49.185385 6.1588505,49.07522 5.3993523,47.896166 z"
       id="path3054"
       inkscape:connector-curvature="0" />
    <path
       style="fill:#a1b199"
       d="M 6.1784335,47.385961 C 4.6910918,46.296119 4.537533,44.069426 4.829667,27.828049 5.0949348,13.080317 5.4597307,9.1662506 6.6970987,7.7914988 8.100537,6.2322381 12.308298,6.06543 54.867432,5.8818849 109.23571,5.6474104 116.88844,5.702158 135,6.4551529 c 22.1946,0.9227488 31.43191,1.6943607 32.70427,2.7318541 0.68126,0.5555055 3.93849,0.7338718 7.5,0.4107003 3.46265,-0.3142015 22.69779,-0.8167864 42.74476,-1.1168553 20.04697,-0.3000689 36.63074,-0.7272863 36.85282,-0.949372 0.22209,-0.2220856 1.42527,-0.015429 2.67373,0.4592361 1.4741,0.5604527 3.70735,0.3678009 6.36982,-0.5494955 3.06374,-1.0555437 4.79916,-1.1466585 6.86683,-0.3605294 1.57021,0.5969919 4.28526,0.7324654 6.27736,0.3132233 C 282.49265,6.2357877 397.27693,7.0163232 398.75,8.2218879 400.50258,9.6561987 400.46593,37.519849 398.70689,41 l -1.26362,2.5 -49.97163,0.652051 C 319.98724,44.510679 282.2,45.337505 263.5,45.989443 c -18.7,0.651938 -56.05,1.168391 -83,1.147673 -26.95,-0.02072 -54.85,-0.0371 -62,-0.03641 C 111.35,47.101392 98.075,47.52112 89,48.03343 64.948153,49.391228 8.3108226,48.948457 6.1784335,47.385961 z M 145.18641,14.845055 C 144.70441,12.021617 143.92905,10.5 142.97232,10.5 c -1.15413,0 -1.42725,1.279569 -1.26379,5.920733 0.28772,8.169267 1.15679,9.959663 2.87572,5.924322 0.90442,-2.123201 1.10134,-4.575884 0.60216,-7.5 z m -11.13006,5.049648 c 1.42771,-2.6677 0.3808,-8.512976 -1.66534,-9.298152 C 131.53599,10.268448 128.38709,10 125.39346,10 c -4.92253,0 -5.53621,0.245264 -6.41821,2.5651 -1.45106,3.816571 -1.33316,4.011093 3.26637,5.389145 2.33289,0.69895 5.13302,1.89518 6.2225,2.658287 2.75674,1.930896 4.27927,1.735462 5.59223,-0.717829 z M 264,17.131669 l 0,-4.868331 -3.75,-0.442454 c -2.0625,-0.24335 -6.9,-0.168449 -10.75,0.166446 -6.07122,0.52811 -6.60195,0.722457 -4,1.464757 3.61545,1.031436 4.76439,2.524418 3.3003,4.288541 -1.42067,1.711794 -1.31321,1.767484 5.6997,2.953926 10.04821,1.699953 9.5,1.905553 9.5,-3.562885 z m 9.5884,1.123395 c -1.0924,-1.092399 -1.84148,0.644857 -1.05718,2.451808 0.74368,1.713366 0.79759,1.711803 1.21194,-0.03514 0.2385,-1.005548 0.16886,-2.093048 -0.15476,-2.416667 z m 117.80682,-3.372609 c -0.50882,-1.774168 -1.48121,-3.411118 -2.16086,-3.637668 -0.7517,-0.250567 -1.01291,0.168737 -0.66687,1.070502 0.31287,0.815325 0.0882,1.779485 -0.49932,2.142577 -1.47958,0.914433 -1.34384,5.273262 0.18183,5.838903 2.47401,0.917235 4.13905,-1.949034 3.14522,-5.414314 z m -210.75435,2.619528 c 0.9955,-0.995492 2.06178,-1.209703 3.17858,-0.638557 2.72174,1.391944 11.0345,2.181907 11.69606,1.11148 C 195.8469,17.438708 198.04734,17 200.40538,17 c 2.35804,0 5.60338,-0.656523 7.21186,-1.45894 1.7756,-0.885786 5.36642,-1.391257 9.14029,-1.286657 3.75931,0.104196 6.6953,-0.30723 7.42913,-1.04106 C 225.13778,12.262219 220.85233,12 204.357,12 192.78335,12 177.84335,11.705846 171.157,11.346324 164.01279,10.962183 159,11.069165 159,11.605777 c 0,1.96654 4.58205,3.592473 11.62506,4.125134 5.26556,0.398234 7.37494,0.945512 7.37494,1.913427 0,1.757293 0.78346,1.715061 2.64087,-0.142355 z M 14.984687,11.75 C 14.993109,10.7875 14.325,10 13.5,10 c -1.662231,0 -1.758143,0.433903 -0.847608,3.834535 0.466873,1.743656 0.839196,1.996759 1.471033,1 0.465272,-0.733994 0.85284,-2.122035 0.861262,-3.084535 z m 88.679483,2.682783 c 0.97508,-2.541019 -0.9815,-3.643372 -4.251331,-2.395239 -2.803924,1.070291 -2.840258,1.165158 -0.971709,2.53716 2.53394,1.860576 4.47484,1.807838 5.22304,-0.141921 z m 10.8629,0.523412 C 115.33371,13.651035 113.22322,11 111.37756,11 c -1.69656,0 -1.79838,2.179179 -0.17756,3.8 1.47557,1.475573 2.48244,1.522842 3.32707,0.156195 z m -19.786305,-2.2339 C 94.187492,11.062475 90,9.8346332 90,11.332224 c 0,0.697277 0.504835,1.772611 1.121855,2.389631 1.302918,1.302918 4.126446,0.523047 3.61891,-0.99956 z m -10.28347,0.346803 C 84.773726,12.557102 84.575283,11.855545 84.016312,11.510081 83.45734,11.164618 83,11.583524 83,12.440983 c 0,1.756526 0.600055,2.015159 1.457295,0.628115 z M 240,13 c 0,-0.55 -2.1375,-0.936143 -4.75,-0.858095 L 230.5,12.283811 234.5,13 c 2.2,0.393904 4.3375,0.780047 4.75,0.858095 C 239.6625,13.936143 240,13.55 240,13 z m 113,-1 c 1.16887,-0.755385 0.89294,-0.972755 -1.25,-0.984687 C 350.2375,11.006891 349,11.45 349,12 c 0,1.264409 2.04347,1.264409 4,0 z M 151.72917,11.395833 c -0.3323,-0.332291 -1.1948,-0.367818 -1.91667,-0.07895 -0.79773,0.319226 -0.56078,0.556183 0.60417,0.604167 1.05416,0.04342 1.64479,-0.192928 1.3125,-0.52522 z"
       id="path3052"
       inkscape:connector-curvature="0" />
    <path
       style="fill:#adc476"
       d="M 5.9404314,45.400967 C 4.2106718,40.939997 5.1148629,10.43418 7.0307877,8.614266 8.4029072,7.310906 50.278536,6.7329118 135.18576,6.8453892 c 11.62452,0.015399 17.7389,1.3470696 14.7283,3.2077248 -2.70429,1.671345 0.22481,2.296066 3.021,0.644319 C 156.05683,8.8533586 166,8.3225718 166,10 c 0,0.55 -1.575,1 -3.5,1 -1.925,0 -3.5,0.341754 -3.5,0.759453 0,1.817878 4.79091,3.454593 11.62506,3.971458 5.26556,0.398234 7.37494,0.945512 7.37494,1.913427 0,1.757293 0.78346,1.715061 2.64087,-0.142355 0.9955,-0.995492 2.06178,-1.209703 3.17858,-0.638557 2.72174,1.391944 11.0345,2.181907 11.69606,1.11148 C 195.8469,17.438708 198.04734,17 200.40538,17 c 2.35804,0 5.60338,-0.656523 7.21186,-1.45894 1.7756,-0.885786 5.36642,-1.391257 9.14029,-1.286657 3.75931,0.104196 6.6953,-0.30723 7.42913,-1.04106 0.95112,-0.951124 -1.58532,-1.235239 -11.73666,-1.31466 -7.1225,-0.05572 -14.3,-0.04831 -15.95,0.01648 -1.65,0.06479 -3.675,-0.33273 -4.5,-0.88337 -1.04704,-0.698838 2.2747,-1.0540697 11,-1.1763589 12.5234,-0.1755215 19.55122,-0.3637823 41,-1.0983059 6.325,-0.2166026 12.48997,0.036399 13.69993,0.5622268 1.60479,0.697414 3.19836,0.4822652 5.89063,-0.7953003 3.13258,-1.4865094 4.24365,-1.5688581 7.3473,-0.5445593 2.8008,0.9243453 4.66009,0.9365824 7.94412,0.052285 C 284.91956,6.4060277 398.14009,7.6240639 399.2229,9.3264163 400.33649,11.077167 400.15818,15.215796 399,14.5 c -0.55,-0.339919 -1,-0.168034 -1,0.381966 0,0.55 0.45,1.278115 1,1.618034 1.25868,0.777904 1.32697,20.509797 0.0823,23.783478 l -0.91768,2.413677 -46.33232,0.639285 C 326.34954,43.688046 290.2,44.464751 271.5,45.062451 c -18.7,0.597699 -64.15,1.258414 -101,1.468254 -36.85,0.20984 -88.697809,0.69421 -115.217353,1.076378 L 7.0652933,48.301934 5.9404314,45.400967 z M 145.18641,14.845055 C 144.70441,12.021617 143.92905,10.5 142.97232,10.5 c -1.15413,0 -1.42725,1.279569 -1.26379,5.920733 0.28772,8.169267 1.15679,9.959663 2.87572,5.924322 0.90442,-2.123201 1.10134,-4.575884 0.60216,-7.5 z m -11.24775,5.72885 c 0.65096,-0.784352 1.04356,-3.371852 0.87245,-5.75 L 134.5,10.5 127.24197,10.206028 c -7.01874,-0.2842792 -7.29074,-0.2079508 -8.25,2.3151 -1.46982,3.865902 -1.35816,4.052584 3.24965,5.433117 2.33289,0.69895 5.13302,1.89518 6.2225,2.658287 2.51944,1.764682 3.98652,1.754331 5.47454,-0.03863 z M 264.76091,17.5 c 0.4273,-6.550934 -0.0589,-6.787161 -11.87075,-5.767862 -8.31476,0.717517 -9.79092,1.06432 -7.39016,1.73621 3.61182,1.010823 4.76651,2.505595 3.3003,4.27228 -1.41946,1.710339 -1.31648,1.764018 5.6997,2.971122 9.35976,1.610307 9.95861,1.422865 10.26091,-3.21175 z m 8.82749,0.755064 c -1.0924,-1.092399 -1.84148,0.644857 -1.05718,2.451808 0.74368,1.713366 0.79759,1.711803 1.21194,-0.03514 0.2385,-1.005548 0.16886,-2.093048 -0.15476,-2.416667 z m 119.206,-0.763691 c 0.31339,-4.248872 -1.72243,-8.2719189 -3.59902,-7.112123 -0.60942,0.37664 -0.87201,1.299871 -0.58353,2.051624 0.28847,0.751754 0.0438,1.6639 -0.54368,2.026992 -1.45083,0.896662 -1.34862,4.304418 0.18183,6.062327 2.24091,2.573959 4.22887,1.248989 4.5444,-3.02882 z M 14.984687,11.75 C 14.993109,10.7875 14.325,10 13.5,10 c -1.662231,0 -1.758143,0.433903 -0.847608,3.834535 0.466873,1.743656 0.839196,1.996759 1.471033,1 0.465272,-0.733994 0.85284,-2.122035 0.861262,-3.084535 z m 88.679483,2.682783 c 0.97508,-2.541019 -0.9815,-3.643372 -4.251331,-2.395239 -2.803924,1.070291 -2.840258,1.165158 -0.971709,2.53716 2.53394,1.860576 4.47484,1.807838 5.22304,-0.141921 z m 10.8629,0.523412 C 115.33371,13.651035 113.22322,11 111.37756,11 c -1.69656,0 -1.79838,2.179179 -0.17756,3.8 1.47557,1.475573 2.48244,1.522842 3.32707,0.156195 z m -19.786305,-2.2339 C 94.187492,11.062475 90,9.8346332 90,11.332224 c 0,0.697277 0.504835,1.772611 1.121855,2.389631 1.302918,1.302918 4.126446,0.523047 3.61891,-0.99956 z m -10.28347,0.346803 C 84.773726,12.557102 84.575283,11.855545 84.016312,11.510081 83.45734,11.164618 83,11.583524 83,12.440983 c 0,1.756526 0.600055,2.015159 1.457295,0.628115 z M 240,13 c 0,-0.55 -2.1375,-0.936143 -4.75,-0.858095 L 230.5,12.283811 234.5,13 c 2.2,0.393904 4.3375,0.780047 4.75,0.858095 C 239.6625,13.936143 240,13.55 240,13 z m 113,-1 c 1.16887,-0.755385 0.89294,-0.972755 -1.25,-0.984687 C 350.2375,11.006891 349,11.45 349,12 c 0,1.264409 2.04347,1.264409 4,0 z M 175.75,11.337719 c 0.6875,-0.277412 1.8125,-0.277412 2.5,0 0.6875,0.277413 0.125,0.504386 -1.25,0.504386 -1.375,0 -1.9375,-0.226973 -1.25,-0.504386 z"
       id="path3050"
       inkscape:connector-curvature="0" />
    <path
       style="fill:#95b16d"
       d="M 5.9404314,45.400967 C 4.2106718,40.939997 5.1148629,10.43418 7.0307877,8.614266 8.2478579,7.4581854 18.367988,7.1849052 66,7.0218836 c 85.1232,-0.2913362 81.2107,-0.3564359 83.5,1.3893458 1.87036,1.4263063 1.6502,1.5272253 -3.39674,1.5569672 L 140.70653,10 l 0.65127,7.704536 c 0.3582,4.237494 1.0274,8.080669 1.48712,8.540387 0.45972,0.459718 1.96697,-0.873388 3.34946,-2.962459 1.9689,-2.975218 2.27924,-4.169851 1.43209,-5.512863 -2.04873,-3.2479 0.64854,-4.072195 4.58464,-1.401085 3.76891,2.557654 7.61936,3.471352 17.93895,4.256852 10.20844,0.777038 10.95912,0.773732 19.34994,-0.08522 4.4,-0.450416 10.55946,-0.902839 13.68768,-1.005384 3.12823,-0.102544 6.35887,-0.743478 7.17921,-1.424297 1.19453,-0.991374 2.43437,-0.917748 6.22665,0.369766 2.60432,0.88419 5.36468,1.366035 6.13414,1.070767 0.76946,-0.295268 2.75479,0.164252 4.41186,1.021155 2.72952,1.411489 3.23748,1.410824 5.40147,-0.0071 3.15297,-2.065901 6.03934,-1.975657 9.84096,0.307685 2.08136,1.250118 6.01496,2.082307 11.83124,2.503006 9.78763,0.707953 10.80219,0.09007 10.77148,-6.560033 -0.0289,-6.262845 1.63787,-6.018564 -36.58871,-5.362333 -22.85739,0.39239 -35.41346,0.250304 -36.39598,-0.411864 -1.05529,-0.711206 2.20594,-1.062859 11,-1.1861119 12.5234,-0.1755215 19.55122,-0.3637823 41,-1.0983059 6.325,-0.2166026 12.48997,0.036399 13.69993,0.5622268 1.60479,0.697414 3.19836,0.4822652 5.89063,-0.7953003 3.13258,-1.4865094 4.24365,-1.5688581 7.3473,-0.5445593 2.8008,0.9243453 4.66009,0.9365824 7.94412,0.052285 6.03758,-1.6257507 119.25811,-0.4077145 120.34092,1.2946379 0.41056,0.645471 0.74647,2.2985837 0.74647,3.6735837 0,1.978938 -0.20204,2.187363 -0.96937,1 -0.75269,-1.164698 -0.9728,-0.872088 -0.98469,1.309017 -0.009,1.621086 0.40759,2.547651 0.98469,2.190983 1.28584,-0.794694 1.3589,19.425815 0.0823,22.783478 l -0.91768,2.413677 -46.33232,0.639285 C 326.34954,43.688046 290.2,44.464751 271.5,45.062451 c -18.7,0.597699 -64.15,1.258414 -101,1.468254 -36.85,0.20984 -88.697809,0.69421 -115.217353,1.076378 L 7.0652933,48.301934 5.9404314,45.400967 z M 274.55903,24.620829 c 0.82589,-3.290606 0.17146,-7.891032 -1.18582,-8.335974 -1.66324,-0.545241 -2.28801,1.931446 -1.6629,6.592001 0.61436,4.58039 1.93405,5.388301 2.84872,1.743973 z M 17.382862,9.8104661 C 17.107369,9.3647097 15.783524,9 14.440983,9 12.074913,9 12,9.2250583 12,16.333333 c 0,4.033334 0.327532,7.660866 0.727849,8.061183 0.85191,0.85191 5.396102,-13.384942 4.655013,-14.5840499 z M 134.07288,21.308306 c 0.56286,-1.480432 0.88922,-4.517932 0.72525,-6.75 L 134.5,10.5 128,9.8544006 C 124.425,9.499321 103.21916,9.1458467 80.875914,9.0689023 42.668627,8.9373261 40.221342,9.0352257 39.739368,10.714502 c -0.281853,0.982024 -0.856587,2.624928 -1.277186,3.650897 -0.633908,1.546296 -0.419313,1.75577 1.254465,1.224534 1.110554,-0.352476 3.149736,-0.211033 4.531515,0.314318 2.1332,0.811041 2.935895,0.513072 5.319173,-1.974533 3.751656,-3.915886 5.508817,-3.807375 5.186471,0.320282 -0.22643,2.899444 0.05236,3.285051 2.584628,3.574956 1.609275,0.184236 3.60413,-0.36799 4.606618,-1.275228 1.573911,-1.424371 1.906011,-1.434112 3.022635,-0.08866 0.977721,1.17808 2.939599,1.423923 8.893383,1.114429 4.583615,-0.238269 8.1602,0.03386 8.942214,0.680373 0.716806,0.592606 3.304306,0.964965 5.75,0.827465 13.938836,-0.783659 34.218216,0.942785 37.420446,3.185714 3.71946,2.605213 6.8862,2.229567 8.09915,-0.960741 z m 258.73496,-3.51597 c 0.16931,-2.039215 -0.20446,-4.664911 -0.83061,-5.834879 -1.13489,-2.1205598 -1.25575,-2.1262085 -38.63198,-1.805534 -20.62144,0.176925 -37.93146,0.592343 -38.46672,0.923151 -0.56273,0.347784 -0.3027,1.157937 0.61652,1.920816 1.20411,0.999324 1.87051,1.038553 2.74733,0.161728 C 319.89649,11.503506 323,11.72685 323,13.5 c 0,1.787865 2.12766,1.972343 3.77287,0.327126 0.89717,-0.897166 1.79394,-0.889898 3.81491,0.03092 1.45312,0.662085 3.46731,0.94186 4.47598,0.621722 1.12429,-0.356837 2.62763,0.211628 3.88509,1.469083 1.12813,1.128133 2.1074,1.826152 2.17615,1.551152 0.0688,-0.275 0.18726,-1.0625 0.26336,-1.75 0.0846,-0.763883 1.29985,-1.138202 3.125,-0.962523 1.64265,0.158112 4.84294,0.393869 7.11175,0.523903 2.26881,0.130035 4.87908,0.862174 5.80061,1.626975 1.47086,1.220707 1.74464,1.126183 2.24153,-0.773904 C 360.15499,14.299331 360.94409,14 365.37323,14 c 2.82699,0 6.5724,-0.410815 8.32315,-0.912922 3.9361,-1.128859 11.51743,-0.234183 11.01305,1.299655 -0.20135,0.612297 -1.30529,1.252079 -2.45321,1.421738 -1.14791,0.169659 -2.32489,0.928086 -2.61549,1.685392 -0.6231,1.623761 6.47025,4.49894 10.35927,4.198969 2.11935,-0.163471 2.54687,-0.757364 2.80784,-3.900496 z M 32,15 c 0,-0.55 -1.125,-1 -2.5,-1 -1.375,0 -2.5,0.45 -2.5,1 0,0.55 1.125,1 2.5,1 1.375,0 2.5,-0.45 2.5,-1 z M 276,11.877555 C 276,11.3949 274.875,11 273.5,11 c -2.71864,0 -3.16465,0.93535 -1.32379,2.776206 C 273.40246,15.002457 276,13.712684 276,11.877555 z M 309.02749,13.25 311.5,11.5 305,11 c -3.575,-0.275 -10.1,-0.335817 -14.5,-0.135149 l -8,0.364851 3.8851,1.379575 c 2.6656,0.946538 5.99607,1.18338 10.61026,0.754537 4.54523,-0.422435 6.95166,-0.258555 7.42392,0.505574 0.94725,1.532685 1.71306,1.429752 4.60821,-0.619388 z M 154,10 c 1.98269,-1.2813128 12,-1.2813128 12,0 0,0.569414 -2.90646,0.993407 -6.75,0.984687 C 154.52277,10.973963 152.94951,10.678882 154,10 z"
       id="path3048"
       inkscape:connector-curvature="0" />
    <path
       style="fill:#8fab50"
       d="M 5.9574054,45.398775 C 4.4297474,41.395655 5.7494067,11.063192 7.5588883,8.5885784 9.4249113,6.0366399 10.998558,7.5056602 11.008692,11.809017 c 0.0048,2.030041 0.294354,6.069459 0.643496,8.976484 0.673413,5.606978 1.973128,6.29672 4.056173,2.152561 0.664599,-1.3222 1.918954,-2.923598 2.787457,-3.558662 0.868502,-0.635064 1.449739,-1.542728 1.291638,-2.017031 C 19.31034,15.931019 20.352251,15.803228 23.3151,16.929701 26.692343,18.213727 34,18.35268 34,17.132872 c 0,-0.862123 5.944844,-0.694476 15.5,0.437108 2.75,0.325673 9.5,0.693138 15,0.816588 5.5,0.12345 10.793231,0.587319 11.762735,1.030819 1.046394,0.478674 2.327612,0.337558 3.152754,-0.347249 1.060772,-0.880362 1.491219,-0.850015 1.817264,0.12812 0.308049,0.924149 3.473761,1.327119 11.347246,1.444414 18.654741,0.277909 24.307781,1.072081 32.294871,4.536973 7.0359,3.052254 7.43619,3.115444 8.70897,1.374804 1.5643,-2.139305 2.72839,-8.920622 2.25103,-13.113252 -0.26668,-2.342251 -1.04761,-3.184253 -3.83487,-4.1347548 -3.11039,-1.0606951 -2.33118,-1.1797761 7,-1.0697517 5.775,0.068093 8.3625,0.2923503 5.75,0.4983489 -4.40512,0.3473484 -4.74856,0.5702349 -4.73019,3.0697516 0.0275,3.744327 1.91501,16.463361 2.53518,17.083528 0.2802,0.280208 2.55427,-1.624469 5.05347,-4.232616 2.93788,-3.065938 5.13562,-4.568934 6.21778,-4.252212 3.19099,0.933933 8.71041,1.634989 16.17376,2.054332 4.125,0.231771 8.80802,0.807226 10.40672,1.27879 2.16708,0.639216 3.89217,0.369829 6.7794,-1.05866 3.03653,-1.502354 5.80952,-1.885204 12.84328,-1.773191 4.93383,0.07857 9.7581,0.08829 10.7206,0.02159 5.45015,-0.377662 14.86802,0.291663 15.69155,1.115194 1.41479,1.414792 4.90317,1.164953 7.11732,-0.509746 2.82749,-2.138609 4.24924,-1.877543 7.50485,1.378068 1.90504,1.905042 4.38203,3.131714 7.17307,3.552304 2.34477,0.353337 6.40975,1.156284 9.0333,1.784326 6.40203,1.532561 7.76895,0.136245 8.47479,-8.657064 0.43169,-5.37788 0.20761,-6.98445 -1.18946,-8.5282 -1.63291,-1.8043385 -1.62263,-1.9548987 0.19994,-2.930311 C 266.83158,7.0197701 271,7.6777486 271,9.1166314 271,9.6024841 270.56114,10 270.02475,10 c -0.63366,0 -0.63366,0.898433 0,2.5651 0.53639,1.410804 0.98214,4.898304 0.99056,7.75 0.019,6.421027 1.13657,8.63367 3.40847,6.748153 C 275.2907,26.343775 276,24.439756 276,22.832101 276,18.861764 279.97559,15 284.06295,15 c 2.88505,0 3.09906,0.218349 2.51091,2.561734 -0.48732,1.94163 -0.09,3.022864 1.64159,4.46673 2.69059,2.243577 4.63174,2.403484 7.03455,0.57949 2.54583,-1.932561 2.23174,-3.94568 -0.50831,-3.257971 -2.74501,0.688955 -5.67719,-0.838612 -4.23333,-2.205422 0.5454,-0.516297 2.84281,-1.239227 5.10534,-1.606511 3.07482,-0.499145 4.5089,-0.272594 5.67857,0.89708 2.16468,2.164678 5.94035,1.956334 9.06322,-0.500115 1.60461,-1.262187 3.11491,-1.748145 3.88485,-1.25 1.43116,0.925942 6.24746,1.296252 15.95881,1.227025 5.71912,-0.04077 6.88807,0.254756 7.99055,2.020103 1.49777,2.398325 3.49439,2.640426 5.73156,0.694984 0.86831,-0.75508 3.74707,-1.603278 6.39726,-1.884885 4.3832,-0.465757 4.90043,-0.296557 5.72525,1.872872 C 356.54247,19.926801 357.32164,21 357.77525,21 359.19967,21 361,18.674441 361,16.834451 c 0,-1.467338 0.6942,-1.696487 4.11,-1.356669 5.03126,0.50053 5.6623,1.055916 4.0795,3.590391 -1.52463,2.441316 -1.10696,2.608949 8.07023,3.239 3.71785,0.255246 7.31785,0.921642 8,1.480881 2.65511,2.176704 6.10547,1.810914 7.43341,-0.788054 1.72069,-3.367625 1.63959,-9.177835 -0.16134,-11.55887 -2.26418,-2.9935132 -1.84456,-3.6185685 2.2182,-3.3041659 4.09761,0.3171 5.26388,1.3080361 5.13501,4.3630359 -0.0695,1.647641 -0.22543,1.559551 -0.88501,-0.5 -0.69296,-2.1637715 -0.81405,-1.95531 -0.90032,1.55 -0.0548,2.2275 0.39265,4.542332 0.99439,5.14407 1.59777,1.597769 0.80951,22.132949 -0.88983,23.181216 -0.71267,0.439624 -25.23767,1.109185 -54.5,1.487914 C 314.44191,43.741929 288.475,44.240712 286,44.471607 275.79793,45.423368 167.07541,47.17145 136,46.883364 117.575,46.712554 81.026816,46.960869 54.781813,47.435175 L 7.0636268,48.297551 5.9574054,45.398775 z M 372,16.106989 C 372,15.109795 374.41332,14 376.58179,14 377.3618,14 378,14.675 378,15.5 c 0,1 -1,1.5 -3,1.5 -1.65,0 -3,-0.401855 -3,-0.893011 z M 233.65121,9.7653128 c -0.63317,-0.404078 4.43629,-0.741578 11.26546,-0.75 6.82916,-0.00842 12.1731,0.2282546 11.8754,0.525948 -0.8447,0.8447012 -21.84967,1.0480732 -23.14086,0.224052 z M 279,9.2637624 c 0,-1.7264609 2.52571,-1.8280866 30.5,-1.2272146 14.85,0.3189696 24.525,0.6705258 21.5,0.7812359 -32.21763,1.1791138 -52,1.3487773 -52,0.4459787 z M 103,8.0542541 92.5,7.5 106.27943,6.7926768 c 7.57868,-0.3890277 14.4386,-0.4543745 15.24425,-0.1452152 2.71825,1.0430883 0.38878,2.3539625 -3.8327,2.1567925 C 115.38594,8.6965939 108.775,8.3590939 103,8.0542541 z"
       id="path3046"
       inkscape:connector-curvature="0" />
    <path
       style="fill:#759157"
       d="M 5.9574054,45.398775 C 4.3931532,41.299763 5.7521368,11.059458 7.6150907,8.5117171 8.3654251,7.4855736 9.2227119,6.8893785 9.5201724,7.1868391 9.817633,7.4842996 10.263894,11.726449 10.511863,16.613838 10.987406,25.986648 11.767611,31 12.750715,31 c 0.325492,0 1.462984,-0.7875 2.52776,-1.75 1.453919,-1.314265 3.672178,-1.75 8.908977,-1.75 5.486685,0 7.245862,-0.373022 8.253027,-1.75 1.700902,-2.32544 3.277969,-2.212453 4.072785,0.29179 0.50413,1.588373 1.129782,1.873197 2.817387,1.282594 C 41.86976,26.435785 85.354585,26.799863 112,27.932811 c 10.41196,0.44271 19.25024,0.403316 20.21604,-0.09011 2.18092,-1.114229 3.98338,-7.720333 3.58855,-13.152282 -0.27567,-3.792541 -0.63692,-4.30375 -3.80459,-5.3839798 -3.11182,-1.0611806 -2.33545,-1.180441 7,-1.0752928 5.775,0.065046 8.475,0.2930561 6,0.5066897 -2.475,0.2136336 -4.85791,0.7404273 -5.29536,1.1706527 -0.68387,0.6725812 1.92625,20.9921822 2.81693,21.9295642 0.17666,0.185931 1.65299,-0.646569 3.28071,-1.85 3.26997,-2.417589 6.37128,-2.643358 16.19772,-1.179161 6.24376,0.930357 14.28983,1.559598 18.5,1.44679 1.1,-0.02947 19.69968,-0.169539 41.33263,-0.311255 45.90796,-0.300741 43.05166,0.366201 43.90395,-10.251499 0.44004,-5.48201 0.22106,-7.082254 -1.18116,-8.631694 -1.63291,-1.8043385 -1.62263,-1.9548987 0.19994,-2.930311 1.05671,-0.5655341 2.89405,-0.7738632 4.08297,-0.4629535 2.17677,0.5692387 2.8738,1.8805691 1.32816,2.4986945 -1.01612,0.406364 0.63679,18.993134 1.79424,20.175974 0.4535,0.463452 1.72279,0.361916 2.82065,-0.225637 1.09785,-0.587553 5.56884,-1.022027 9.93553,-0.965499 4.36669,0.05653 8.88091,-0.401082 10.0316,-1.016911 2.85114,-1.525885 12.56024,-2.131039 32.75149,-2.041356 49.28644,0.218916 62.93463,-0.09929 64.33533,-1.499996 2.22125,-2.221254 2.70165,-10.12476 0.79251,-13.038471 -2.27448,-3.4712957 -2.13693,-3.6658289 2.40263,-3.3979752 3.29798,0.1945956 4.13762,0.6647622 4.62009,2.5870802 0.3243,1.292095 0.31059,2.628308 -0.0305,2.969361 -0.34106,0.341053 -0.66496,-0.467404 -0.71978,-1.79657 L 398.80064,9.5 l -0.67863,2.428937 c -0.96715,3.461606 -0.14946,9.696882 1.0402,7.932086 0.57527,-0.853375 0.80937,2.849343 0.62764,9.927118 -0.20293,7.902987 -0.67843,11.527798 -1.58561,12.087301 -0.71267,0.439537 -25.23767,1.109029 -54.5,1.487758 C 314.44191,43.741929 288.475,44.240712 286,44.471607 275.79793,45.423368 167.07541,47.17145 136,46.883364 117.575,46.712554 81.026816,46.960869 54.781813,47.435175 L 7.0636268,48.297551 5.9574054,45.398775 z M 200.40371,26.844199 c -0.76528,-1.238251 1.48874,-2.957691 3.39911,-2.592946 1.9928,0.380484 1.59015,2.059235 -0.69683,2.905241 -1.19125,0.440672 -2.31735,0.310531 -2.70228,-0.312295 z M 210.5,26 c -0.33992,-0.55 0.11008,-1 1,-1 0.88992,0 1.33992,0.45 1,1 -0.33992,0.55 -0.78992,1 -1,1 -0.21008,0 -0.66008,-0.45 -1,-1 z M 233.65121,9.7653128 c -0.63317,-0.404078 4.43629,-0.741578 11.26546,-0.75 6.82916,-0.00842 12.1731,0.2282546 11.8754,0.525948 -0.8447,0.8447012 -21.84967,1.0480732 -23.14086,0.224052 z M 279,9.2709538 c 0,-1.7344633 2.503,-1.8357657 30.5,-1.234406 21.44802,0.4606913 23.70993,0.6202087 11,0.7757536 -8.8,0.1076949 -21.7375,0.4884292 -28.75,0.8460762 C 283.19016,10.094941 279,9.9676177 279,9.2709538 z M 103,8.0542541 92.5,7.5 106.27943,6.7926768 c 7.57868,-0.3890277 14.4386,-0.4543745 15.24425,-0.1452152 2.71825,1.0430883 0.38878,2.3539625 -3.8327,2.1567925 C 115.38594,8.6965939 108.775,8.3590939 103,8.0542541 z"
       id="path3044"
       inkscape:connector-curvature="0" />
    <path
       style="fill:#63745c"
       d="m 6.9228376,46.404692 c -0.5010284,-0.602419 -1.1630332,-2.402419 -1.4711218,-4 -0.8235287,-4.270374 1.1130471,-22.759613 2.4298314,-23.198541 0.615149,-0.20505 1.1662111,-2.022818 1.2245823,-4.039484 0.058371,-2.016667 0.6707091,0.508171 1.3607505,5.61075 0.690042,5.10258 1.539525,9.562321 1.88774,9.910536 0.348215,0.348215 1.584124,-0.226622 2.746465,-1.277417 C 16.755896,27.914531 18.727374,27.5 24.187452,27.5 c 5.486685,0 7.245862,-0.373022 8.253027,-1.75 1.700902,-2.32544 3.277969,-2.212453 4.072785,0.29179 0.50413,1.588373 1.129782,1.873197 2.817387,1.282594 2.371763,-0.830034 44.712192,-0.514179 70.169349,0.523456 13.22797,0.539172 16.4751,0.9744 18.74228,2.512111 1.50825,1.022974 3.371,1.618689 4.13944,1.323813 1.50893,-0.579035 5.60854,-12.144364 5.63359,-15.892861 0.0346,-5.182413 1.90975,0.925705 2.55502,8.32289 0.89651,10.277481 1.6236,11.268823 5.16058,7.036207 3.14144,-3.759282 5.02602,-4.028542 16.26909,-2.324448 3.575,0.541857 7.4,1.078577 8.5,1.192711 5.12116,0.531362 39.50762,0.51721 52.5,-0.02161 16.68004,-0.691751 28.82141,0.264827 34.36458,2.70747 3.70436,1.632356 3.92199,1.624447 5.24931,-0.190766 C 264.81823,29.49874 268,20.213832 268,16.795821 c 0,-5.392953 1.13287,-2.287482 2.143,5.87451 1.11608,9.018007 1.978,10.435128 4.79582,7.885034 1.7033,-1.541466 3.04427,-1.698217 9.41822,-1.100929 5.65993,0.530378 8.56165,0.31297 12.16898,-0.911749 2.60525,-0.884508 6.38697,-1.510832 8.40381,-1.39183 2.01683,0.119003 4.22896,-0.130964 4.91585,-0.55548 2.19509,-1.356645 70.48244,-0.153471 75.8476,1.336381 2.0937,0.581398 4.33305,1.059598 4.97635,1.062665 1.08418,0.0052 3.16907,-5.349405 4.86492,-12.494423 l 0.71204,-3 0.94982,3 c 0.52241,1.65 1.41523,3.960676 1.98406,5.134836 1.45788,3.009355 0.6735,19.219609 -0.97943,20.241028 -0.71442,0.441476 -26.81442,1.11243 -58,1.491009 C 309.01547,43.745451 273.6,44.507817 261.5,45.061018 249.4,45.61422 215.425,46.020524 186,45.963916 111.79666,45.821164 106.02381,45.864628 93,46.66412 73.654731,47.851666 7.9616076,47.653673 6.9228376,46.404692 z M 399.116,12.831787 c -0.0638,-0.917516 -0.37498,-2.492516 -0.69151,-3.4999995 -0.54548,-1.7362224 -0.51588,-1.7388501 0.56728,-0.050368 0.62853,0.9797805 0.9397,2.5547805 0.6915,3.4999995 -0.40654,1.548254 -0.46276,1.553246 -0.56727,0.05037 z M 265,9 c 0,-0.55 0.675,-1 1.5,-1 0.825,0 1.5,0.45 1.5,1 0,0.55 -0.675,1 -1.5,1 -0.825,0 -1.5,-0.45 -1.5,-1 z"
       id="path3042"
       inkscape:connector-curvature="0" />
    <path
       style="fill:#708c32"
       d="M 7.1146549,45.214235 C 5.7937651,42.74613 5.7751715,33.695052 7.075183,26 7.5862302,22.975 8.3120881,18.475 8.6882005,16 c 0.6516707,-4.288306 0.7391037,-4.063561 1.8585705,4.777417 0.646102,5.10258 1.459634,9.562321 1.807849,9.910536 0.348215,0.348215 1.584124,-0.226622 2.746465,-1.277417 C 16.755896,27.914531 18.727374,27.5 24.187452,27.5 c 5.486685,0 7.245862,-0.373022 8.253027,-1.75 1.700902,-2.32544 3.277969,-2.212453 4.072785,0.29179 0.50413,1.588373 1.129782,1.873197 2.817387,1.282594 2.378689,-0.832457 44.828418,-0.512558 70.169349,0.528794 14.48403,0.595201 16.36134,0.883093 19.81366,3.038498 2.37986,1.485824 4.16703,2.027631 4.75356,1.441105 1.29454,-1.294537 3.92941,-11.726733 3.94809,-15.631571 0.0284,-5.945283 1.85105,-0.657547 2.55502,7.412583 0.89651,10.277481 1.6236,11.268823 5.16058,7.036207 3.14144,-3.759282 5.02602,-4.028542 16.26909,-2.324448 3.575,0.541857 7.4,1.078577 8.5,1.192711 5.11146,0.530356 39.50077,0.517737 52.5,-0.01926 17.37019,-0.717567 29.88977,0.393958 35.25251,3.12982 2.94641,1.503148 4.23018,1.715472 5.2508,0.868434 C 265.62478,32.236587 268,24.132686 268,18.655195 c 0,-7.061324 1.00527,-5.177848 2.143,4.015136 1.11608,9.018007 1.978,10.435128 4.79582,7.885034 1.7033,-1.541466 3.04427,-1.698217 9.41822,-1.100929 5.65993,0.530378 8.56165,0.31297 12.16898,-0.911749 2.60525,-0.884508 6.38697,-1.510832 8.40381,-1.39183 2.01683,0.119003 4.22896,-0.130964 4.91585,-0.55548 1.24419,-0.768956 10.62559,-0.785262 50.81349,-0.08832 18.50416,0.320899 25.32035,1.012911 30.84008,3.131031 1.52058,0.583502 4.42024,-7.64503 4.6056,-13.069586 L 396.20971,13.5 l 1.14514,3.668154 c 0.62983,2.017485 1.48265,4.004985 1.89515,4.416667 0.88411,0.882356 0.98695,14.929631 0.13263,18.115801 l -0.59007,2.200621 -34.14628,0.07168 C 345.86583,42.012348 328.25,42.247595 325.5,42.495695 c -2.75,0.248099 -16.25,0.692222 -30,0.986938 -13.75,0.294716 -46.15,1.019275 -72,1.61013 -25.85,0.590855 -63.65,0.944618 -84,0.78614 -20.35,-0.158478 -58.210905,0.09576 -84.135345,0.564971 L 8.2293099,47.296987 7.1146549,45.214235 z M 399.07895,11.416667 c 0.048,-1.164943 0.28494,-1.4019 0.60416,-0.604167 0.28887,0.721875 0.25335,1.584375 -0.0789,1.916667 -0.33229,0.332291 -0.56864,-0.258334 -0.52522,-1.3125 z"
       id="path3040"
       inkscape:connector-curvature="0" />
    <path
       style="fill:#4e6d24"
       d="m 7.1146549,45.214235 c -1.25895,-2.35237 -1.4161929,-8.035893 -0.4721985,-17.067544 0.8819757,-8.438288 2.9905924,-8.25049 3.5359966,0.314925 0.226295,3.553888 0.689674,6.739845 1.029732,7.079902 0.340058,0.340058 1.669831,-0.04111 2.955051,-0.847043 1.989592,-1.247627 10.938368,-1.444699 60.232826,-1.326463 37.375058,0.08965 58.381898,-0.216798 59.266758,-0.864573 C 134.4167,31.951548 135.58847,29.25 136.26675,26.5 136.94504,23.75 137.95,21.533869 138.5,21.575265 c 0.55,0.04139 1.45,3.04978 2,6.6853 0.55,3.635519 1.29846,6.900106 1.66324,7.254638 0.36478,0.354531 1.8448,-0.129591 3.28894,-1.075828 2.24613,-1.471717 3.81274,-1.598518 10.83677,-0.877124 4.51608,0.463819 28.91105,0.95828 54.21105,1.098803 25.3,0.140522 47.32248,0.285719 48.93885,0.32266 3.80465,0.08695 5.11231,-1.323616 7.41761,-8.001338 L 268.74909,21.5 l 0.70952,5 c 1.11241,7.839289 1.50268,8.747299 3.38173,7.868083 2.61889,-1.225388 26.28195,-2.174359 70.65966,-2.8337 22.55,-0.335036 42.90774,-0.844191 45.23942,-1.131456 4.15493,-0.51189 4.27093,-0.63071 5.82095,-5.962613 C 395.43022,21.448141 396.34612,19 396.59571,19 c 1.994,0 4.05418,13.722258 2.94657,19.626294 l -0.61432,3.274658 -34.21398,0.07183 c -18.81769,0.0395 -36.46398,0.274817 -39.21398,0.522917 -2.75,0.248099 -16.25,0.692222 -30,0.986938 -13.75,0.294716 -46.15,1.019275 -72,1.61013 -25.85,0.590855 -63.65,0.944618 -84,0.78614 -20.35,-0.158478 -58.210905,0.09576 -84.135345,0.564971 L 8.2293099,47.296987 7.1146549,45.214235 z M 399.07895,11.416667 c 0.048,-1.164943 0.28494,-1.4019 0.60416,-0.604167 0.28887,0.721875 0.25335,1.584375 -0.0789,1.916667 -0.33229,0.332291 -0.56864,-0.258334 -0.52522,-1.3125 z"
       id="path3038"
       inkscape:connector-curvature="0" />
    <path
       style="fill:#34511d"
       d="M 6.9028534,44.815741 C 5.4313049,42.070591 6.363843,26 7.9946862,26 c 0.3938573,0 0.9909583,2.943348 1.326891,6.540773 0.7610878,8.150314 1.3079628,9.104845 3.8812068,6.77437 C 15.409878,37.316274 17.972196,37.217685 40,38.284082 c 6.875,0.332829 29.95372,0.671194 51.286045,0.751923 44.341995,0.167805 42.629745,0.473225 44.799045,-7.99094 2.00854,-7.836905 2.69189,-6.993606 4.31813,5.328838 0.28119,2.130646 0.69878,4.061432 0.92798,4.290635 0.22921,0.229203 1.98456,-0.508307 3.90079,-1.63891 3.3751,-1.991356 3.82468,-2.010582 14.37603,-0.614779 8.29682,1.097558 21.53509,1.398963 55.56144,1.265007 L 259.83893,39.5 l 2.55151,-2.39705 c 1.40334,-1.318378 3.04948,-3.905878 3.65809,-5.75 1.56102,-4.72993 2.58502,-4.173039 3.38262,1.8396 0.84331,6.357118 1.33921,7.242923 3.19336,5.704113 1.97254,-1.63706 27.74298,-2.334409 75.49558,-2.042912 l 38.62009,0.235749 3.05528,-2.570841 c 1.6804,-1.413963 3.65135,-4.359101 4.3799,-6.54475 0.72855,-2.18565 1.77464,-3.979519 2.32464,-3.986377 0.55,-0.0069 1.25498,3.480643 1.56662,7.75 0.37462,5.13208 0.66807,6.407029 0.866,3.762468 0.16466,-2.2 0.51383,-3.167561 0.77594,-2.150136 0.2621,1.017426 0.19435,3.354119 -0.15056,5.192651 l -0.62711,3.342787 -28.71544,0.05289 c -27.11061,0.04994 -42.85147,0.33656 -87.71545,1.597206 -49.64164,1.394895 -98.46188,2.037541 -123,1.619114 -37.00164,-0.630958 -52.9176,-0.532037 -67,0.416418 -6.6,0.444513 -28.356216,0.835399 -48.347147,0.868637 C 11.063407,46.494587 7.7247865,46.349047 6.9028534,44.81574 z"
       id="path3036"
       inkscape:connector-curvature="0" />
    <path
       style="fill:#203216"
       d="m 7.75,44.668213 c -0.4125,-1.007484 -0.7094153,-3.932484 -0.6598117,-6.5 L 7.1803765,33.5 l 0.9654,3.354182 C 9.2970902,40.854302 8.9548689,47.610964 7.75,44.668213 z m 40,0.669506 c 0.6875,-0.277412 1.8125,-0.277412 2.5,0 0.6875,0.277413 0.125,0.504386 -1.25,0.504386 -1.375,0 -1.9375,-0.226973 -1.25,-0.504386 z m 12,0 c 0.6875,-0.277412 1.8125,-0.277412 2.5,0 0.6875,0.277413 0.125,0.504386 -1.25,0.504386 -1.375,0 -1.9375,-0.226973 -1.25,-0.504386 z m 73.723,-2.422795 c -0.44838,-1.412712 0.0136,-2.80397 1.43261,-4.314451 C 136.05752,37.374317 137,35.864158 137,35.244566 c 0,-0.619593 0.40994,-1.379889 0.91098,-1.689547 0.50104,-0.309658 1.06354,2.139604 1.25,5.442805 0.33492,5.933189 0.30658,6.005798 -2.34359,6.003998 -1.83988,-0.0012 -2.89051,-0.656839 -3.34439,-2.086898 z m 54.777,1.356608 c 2.0625,-0.215745 5.4375,-0.215745 7.5,0 2.0625,0.215744 0.375,0.392262 -3.75,0.392262 -4.125,0 -5.8125,-0.176518 -3.75,-0.392262 z m 41.5625,-0.954646 c 0.72187,-0.288871 1.58437,-0.253344 1.91667,0.07895 0.33229,0.332292 -0.25834,0.568641 -1.3125,0.52522 -1.16495,-0.04798 -1.4019,-0.284941 -0.60417,-0.604167 z m 7.9375,-0.04028 c 1.7875,-0.221826 4.7125,-0.221826 6.5,0 1.7875,0.221827 0.325,0.403322 -3.25,0.403322 -3.575,0 -5.0375,-0.181495 -3.25,-0.403322 z m 25.08843,-0.0087 -3.66158,-0.378126 3.25638,-3.256376 c 1.79101,-1.791007 3.76253,-4.128715 4.38116,-5.194907 0.94907,-1.635683 1.12954,-1.196461 1.1552,2.81147 0.0167,2.6125 0.0642,5.07625 0.10541,5.475 0.0955,0.923516 -0.72622,1.008718 -5.23657,0.542939 z M 313.75,41.267795 c 2.3375,-0.210535 6.1625,-0.210535 8.5,0 2.3375,0.210535 0.425,0.382791 -4.25,0.382791 -4.675,0 -6.5875,-0.172256 -4.25,-0.382791 z M 387,41 c -2.21865,-0.467005 -2.69777,-0.784911 -1.30873,-0.868359 1.38248,-0.08305 3.78162,-2.170343 6.5,-5.655122 l 4.30873,-5.52348 0.78024,3.878833 c 0.45169,2.245452 0.35683,4.992498 -0.22525,6.523481 C 395.97797,42.18814 394.10221,42.494949 387,41 z m -36.1875,-0.683114 c 0.72187,-0.288871 1.58438,-0.253344 1.91667,0.07895 0.33229,0.332292 -0.25834,0.568641 -1.3125,0.52522 -1.16495,-0.04798 -1.4019,-0.284941 -0.60417,-0.604167 z M 362.25,40.25845 c 3.7125,-0.192407 9.7875,-0.192407 13.5,0 3.7125,0.192406 0.675,0.349829 -6.75,0.349829 -7.425,0 -10.4625,-0.157423 -6.75,-0.349829 z"
       id="path3034"
       inkscape:connector-curvature="0" />
  </g>
</svg>
